<?xml version="1.0" encoding="UTF-8" standalone="no"?>
<!-- Created with Inkscape (http://www.inkscape.org/) -->

<svg
   xmlns:dc="http://purl.org/dc/elements/1.1/"
   xmlns:cc="http://creativecommons.org/ns#"
   xmlns:rdf="http://www.w3.org/1999/02/22-rdf-syntax-ns#"
   xmlns:svg="http://www.w3.org/2000/svg"
   xmlns="http://www.w3.org/2000/svg"
   xmlns:sodipodi="http://sodipodi.sourceforge.net/DTD/sodipodi-0.dtd"
   xmlns:inkscape="http://www.inkscape.org/namespaces/inkscape"
   width="210mm"
   height="297mm"
   viewBox="0 0 210 297"
   version="1.1"
   id="svg8"
   inkscape:version="0.92.1 unknown"
   sodipodi:docname="Logo Pagina.svg">
  <defs
     id="defs2">
    <filter
       inkscape:collect="always"
       style="color-interpolation-filters:sRGB"
       id="filter5367"
       x="-0.040636776"
       width="1.0812736"
       y="-0.020896232"
       height="1.0417925">
      <feGaussianBlur
         inkscape:collect="always"
         stdDeviation="0.37516783"
         id="feGaussianBlur5369" />
    </filter>
    <filter
       inkscape:collect="always"
       style="color-interpolation-filters:sRGB"
       id="filter5495"
       x="-0.018322029"
       width="1.0366441"
       y="-0.013582155"
       height="1.0271643">
      <feGaussianBlur
         inkscape:collect="always"
         stdDeviation="0.64470513"
         id="feGaussianBlur5497" />
    </filter>
    <filter
       inkscape:collect="always"
       style="color-interpolation-filters:sRGB"
       id="filter5915"
       x="-0.0069213643"
       width="1.0138427"
       y="-0.045072494"
       height="1.090145">
      <feGaussianBlur
         inkscape:collect="always"
         stdDeviation="0.3620219"
         id="feGaussianBlur5917" />
    </filter>
  </defs>
  <sodipodi:namedview
     id="base"
     pagecolor="#ffffff"
     bordercolor="#666666"
     borderopacity="1.0"
     inkscape:pageopacity="0.0"
     inkscape:pageshadow="2"
     inkscape:zoom="0.70710678"
     inkscape:cx="454.38218"
     inkscape:cy="543.59932"
     inkscape:document-units="mm"
     inkscape:current-layer="layer1"
     showgrid="false"
     inkscape:window-width="1303"
     inkscape:window-height="744"
     inkscape:window-x="63"
     inkscape:window-y="24"
     inkscape:window-maximized="1"
     inkscape:lockguides="false" />
  <metadata
     id="metadata5">
    <rdf:RDF>
      <cc:Work
         rdf:about="">
        <dc:format>image/svg+xml</dc:format>
        <dc:type
           rdf:resource="http://purl.org/dc/dcmitype/StillImage" />
        <dc:title></dc:title>
      </cc:Work>
    </rdf:RDF>
  </metadata>
  <g
     inkscape:label="Capa 1"
     inkscape:groupmode="layer"
     id="layer1">
    <g
       id="g6001"
       transform="translate(-31.75,1.0583333)">
      <ellipse
         ry="77.775429"
         rx="83.92263"
         cy="137.97462"
         cx="134.91066"
         id="path4485"
         style="fill:#ff0000;fill-rule:evenodd;stroke:#000000;stroke-width:0.26458332px;stroke-linecap:butt;stroke-linejoin:miter;stroke-opacity:1" />
      <path
         style="opacity:0.98000004;fill:#000000;fill-opacity:1;fill-rule:evenodd;stroke:#ffffff;stroke-width:2.4000001;stroke-linejoin:miter;stroke-miterlimit:4;stroke-dasharray:none;stroke-opacity:0;filter:url(#filter5495)"
         d="m 77.389774,110.7483 0.504899,-9.35443 c 37.093877,-8.188421 55.049297,-1.23491 67.374017,9.68431 16.29108,10.62491 26.00413,53.78265 1.73945,75.41149 -11.45151,8.3529 -31.27087,12.84724 -31.7897,25.2414 -4.76225,-0.68763 -12.79964,-3.19237 -17.463998,-5.20005 -16.13554,-6.31156 -17.869185,-10.07931 -20.563268,-12.16351 z"
         id="path4927"
         inkscape:connector-curvature="0"
         sodipodi:nodetypes="cccccccc" />
      <path
         sodipodi:nodetypes="cccccccc"
         inkscape:connector-curvature="0"
         id="rect4489"
         d="m 80.180862,113.33155 0.504899,-9.35443 c 37.093879,-8.188423 55.049299,-1.23491 67.374019,9.68431 16.29108,10.62491 26.00413,53.78265 1.73945,75.41149 -11.45151,8.3529 -31.27087,12.84724 -31.7897,25.2414 -4.76225,-0.68763 -12.79964,-3.19237 -17.464,-5.20005 -16.13554,-6.31156 -17.869185,-10.07931 -20.563268,-12.16351 z"
         style="opacity:0.98000004;fill:#ffffff;fill-opacity:1;fill-rule:evenodd;stroke:#ffffff;stroke-width:2.4000001;stroke-linejoin:miter;stroke-miterlimit:4;stroke-dasharray:none;stroke-opacity:0" />
      <path
         style="fill:#bb0000;fill-opacity:1;fill-rule:evenodd;stroke:#000000;stroke-width:0.26458332px;stroke-linecap:butt;stroke-linejoin:miter;stroke-opacity:1;filter:url(#filter5367)"
         id="path5165"
         sodipodi:type="arc"
         sodipodi:cx="-149.26234"
         sodipodi:cy="105.06721"
         sodipodi:rx="21.544643"
         sodipodi:ry="22.111609"
         sodipodi:start="0"
         sodipodi:end="3.1415927"
         d="m -127.7177,105.06721 a 21.544643,22.111609 0 0 1 -10.77232,19.14921 21.544643,22.111609 0 0 1 -21.54465,0 21.544643,22.111609 0 0 1 -10.77232,-19.14921 l 21.54465,0 z"
         transform="rotate(-90.12162)" />
      <path
         transform="rotate(-90.12162)"
         d="m -127.06766,107.31366 a 21.544643,22.111609 0 0 1 -10.77232,19.14921 21.544643,22.111609 0 0 1 -21.54465,0 21.544643,22.111609 0 0 1 -10.77232,-19.14921 l 21.54465,0 z"
         sodipodi:end="3.1415927"
         sodipodi:start="0"
         sodipodi:ry="22.111609"
         sodipodi:rx="21.544643"
         sodipodi:cy="107.31366"
         sodipodi:cx="-148.6123"
         sodipodi:type="arc"
         id="path4492"
         style="fill:#ff0000;fill-rule:evenodd;stroke:#000000;stroke-width:0.26458332px;stroke-linecap:butt;stroke-linejoin:miter;stroke-opacity:1" />
      <path
         transform="matrix(1.029586,0,0,1,-7.0621485,0)"
         style="opacity:0.98000004;fill:#00173f;fill-opacity:1;fill-rule:evenodd;stroke:#ffffff;stroke-width:2.36526585;stroke-linejoin:miter;stroke-miterlimit:4;stroke-dasharray:none;stroke-opacity:0;filter:url(#filter5915)"
         d="m 113.76832,141.49603 124.93063,-0.13363 v 19.27678 l -125.53198,-0.0668 c 1.86392,-2.29702 3.50777,-5.30525 3.27405,-9.70707 0.12356,-3.58053 -1.4168,-7.11874 -2.6727,-9.36926 z"
         id="path5499"
         inkscape:connector-curvature="0"
         sodipodi:nodetypes="cccccc" />
      <path
         sodipodi:nodetypes="cccccc"
         inkscape:connector-curvature="0"
         id="rect4502"
         d="m 112.06044,138.76161 124.93063,-0.13363 v 19.27678 l -125.53198,-0.0668 c 1.86392,-2.29702 3.50777,-5.30525 3.27405,-9.70707 0.12356,-3.58053 -1.4168,-7.11874 -2.6727,-9.36926 z"
         style="opacity:0.98000004;fill:#005fff;fill-opacity:1;fill-rule:evenodd;stroke:#ffffff;stroke-width:2.4000001;stroke-linejoin:miter;stroke-miterlimit:4;stroke-dasharray:none;stroke-opacity:0" />
      <g
         style="fill:#000000;fill-opacity:1"
         transform="translate(78.059044,-102.06546)"
         id="g4770">
        <g
           style="fill:#000000;fill-opacity:1"
           id="g4524"
           transform="translate(12.710413,11.280269)">
          <g
             style="font-style:normal;font-weight:normal;font-size:medium;line-height:125%;font-family:sans-serif;letter-spacing:0px;word-spacing:0px;fill:#000000;fill-opacity:1;stroke:none;stroke-width:0.48868459px;stroke-linecap:butt;stroke-linejoin:miter;stroke-opacity:1"
             id="g4544"
             transform="matrix(0.59036761,0,0,0.49652953,-87.718349,-185.85143)">
            <path
               inkscape:connector-curvature="0"
               d="m 199.64062,838.75 h 3.94532 v 29.16016 h -3.94532 z"
               style="fill:#000000;fill-opacity:1;stroke-width:0.48868459px"
               id="path4526" />
          </g>
          <g
             style="font-style:normal;font-weight:normal;font-size:medium;line-height:125%;font-family:sans-serif;letter-spacing:0px;word-spacing:0px;fill:#000000;fill-opacity:1;stroke:none;stroke-width:0.48868459px;stroke-linecap:butt;stroke-linejoin:miter;stroke-opacity:1"
             id="g4547"
             transform="matrix(0.59036761,0,0,0.49652953,-87.718349,-185.85143)">
            <path
               inkscape:connector-curvature="0"
               d="m 228.3125,850.23437 q 1.34766,-2.42187 3.22266,-3.57421 1.875,-1.15235 4.41406,-1.15235 3.41797,0 5.27344,2.40235 1.85546,2.38281 1.85546,6.79687 v 13.20313 h -3.61328 v -13.08594 q 0,-3.14453 -1.11328,-4.66797 -1.11328,-1.52344 -3.39844,-1.52344 -2.79296,0 -4.41406,1.85547 -1.62109,1.85547 -1.62109,5.05859 v 12.36329 h -3.61328 v -13.08594 q 0,-3.16406 -1.11328,-4.66797 -1.11329,-1.52344 -3.4375,-1.52344 -2.75391,0 -4.375,1.875 -1.6211,1.85547 -1.6211,5.03906 v 12.36329 h -3.61328 v -21.875 h 3.61328 v 3.39843 q 1.23047,-2.01172 2.94922,-2.96875 1.71875,-0.95703 4.08203,-0.95703 2.38281,0 4.04297,1.21094 1.67969,1.21094 2.48047,3.51562 z"
               style="fill:#000000;fill-opacity:1;stroke-width:0.48868459px"
               id="path4528" />
          </g>
          <g
             style="font-style:normal;font-weight:normal;font-size:medium;line-height:125%;font-family:sans-serif;letter-spacing:0px;word-spacing:0px;fill:#000000;fill-opacity:1;stroke:none;stroke-width:0.48868459px;stroke-linecap:butt;stroke-linejoin:miter;stroke-opacity:1"
             id="g4550"
             transform="matrix(0.59036761,0,0,0.49652953,-87.718349,-185.85143)">
            <path
               inkscape:connector-curvature="0"
               d="m 260.20703,856.91406 q -4.35547,0 -6.03516,0.9961 -1.67968,0.99609 -1.67968,3.39843 0,1.91407 1.25,3.04688 1.26953,1.11328 3.4375,1.11328 2.98828,0 4.78515,-2.10938 1.81641,-2.1289 1.81641,-5.64453 v -0.80078 z m 7.16797,-1.48437 v 12.48047 h -3.59375 v -3.32032 q -1.23047,1.99219 -3.06641,2.94922 -1.83593,0.9375 -4.49218,0.9375 -3.35938,0 -5.35157,-1.875 -1.97265,-1.89453 -1.97265,-5.05859 0,-3.69141 2.46093,-5.56641 2.48047,-1.875 7.38282,-1.875 h 5.03906 V 853.75 q 0,-2.48047 -1.64063,-3.82813 -1.62109,-1.36718 -4.57031,-1.36718 -1.875,0 -3.65234,0.44922 -1.77735,0.44921 -3.41797,1.34765 v -3.32031 q 1.97266,-0.76172 3.82812,-1.13281 1.85547,-0.39063 3.61329,-0.39063 4.74609,0 7.08984,2.46094 2.34375,2.46094 2.34375,7.46094 z"
               style="fill:#000000;fill-opacity:1;stroke-width:0.48868459px"
               id="path4530" />
          </g>
          <g
             style="font-style:normal;font-weight:normal;font-size:medium;line-height:125%;font-family:sans-serif;letter-spacing:0px;word-spacing:0px;fill:#000000;fill-opacity:1;stroke:none;stroke-width:0.48868459px;stroke-linecap:butt;stroke-linejoin:miter;stroke-opacity:1"
             id="g4553"
             transform="matrix(0.59036761,0,0,0.49652953,-87.718349,-185.85143)">
            <path
               inkscape:connector-curvature="0"
               d="m 289.19141,856.71875 q 0,-3.90625 -1.6211,-6.05469 -1.60156,-2.14844 -4.51172,-2.14844 -2.89062,0 -4.51172,2.14844 -1.60156,2.14844 -1.60156,6.05469 0,3.88672 1.60156,6.03516 1.6211,2.14843 4.51172,2.14843 2.91016,0 4.51172,-2.14843 1.6211,-2.14844 1.6211,-6.03516 z m 3.59375,8.47656 q 0,5.58594 -2.48047,8.30078 -2.48047,2.73438 -7.59766,2.73438 -1.89453,0 -3.57422,-0.29297 -1.67969,-0.27344 -3.26172,-0.85938 v -3.49609 q 1.58203,0.85938 3.125,1.26953 1.54297,0.41016 3.14453,0.41016 3.53516,0 5.29297,-1.85547 1.75782,-1.83594 1.75782,-5.56641 v -1.77734 q -1.11329,1.93359 -2.85157,2.89062 -1.73828,0.95704 -4.16015,0.95704 -4.02344,0 -6.48438,-3.06641 -2.46094,-3.06641 -2.46094,-8.125 0,-5.07813 2.46094,-8.14453 2.46094,-3.06641 6.48438,-3.06641 2.42187,0 4.16015,0.95703 1.73828,0.95703 2.85157,2.89063 v -3.32031 h 3.59375 z"
               style="fill:#000000;fill-opacity:1;stroke-width:0.48868459px"
               id="path4532" />
          </g>
          <g
             style="font-style:normal;font-weight:normal;font-size:medium;line-height:125%;font-family:sans-serif;letter-spacing:0px;word-spacing:0px;fill:#000000;fill-opacity:1;stroke:none;stroke-width:0.48868459px;stroke-linecap:butt;stroke-linejoin:miter;stroke-opacity:1"
             id="g4556"
             transform="matrix(0.59036761,0,0,0.49652953,-87.718349,-185.85143)">
            <path
               inkscape:connector-curvature="0"
               d="m 318.89844,856.07422 v 1.75781 H 302.375 q 0.23437,3.71094 2.22656,5.66406 2.01172,1.9336 5.58594,1.9336 2.07031,0 4.00391,-0.50782 1.95312,-0.50781 3.86718,-1.52343 v 3.39843 q -1.93359,0.82032 -3.96484,1.25 -2.03125,0.42969 -4.12109,0.42969 -5.23438,0 -8.30079,-3.04687 -3.04687,-3.04688 -3.04687,-8.24219 0,-5.37109 2.89062,-8.51563 2.91016,-3.16406 7.83204,-3.16406 4.41406,0 6.97265,2.85156 2.57813,2.83204 2.57813,7.71485 z m -3.59375,-1.05469 q -0.0391,-2.94922 -1.66016,-4.70703 -1.60156,-1.75781 -4.25781,-1.75781 -3.00781,0 -4.82422,1.69922 -1.79688,1.69921 -2.07031,4.78515 z"
               style="fill:#000000;fill-opacity:1;stroke-width:0.48868459px"
               id="path4534" />
          </g>
          <g
             style="font-style:normal;font-weight:normal;font-size:medium;line-height:125%;font-family:sans-serif;letter-spacing:0px;word-spacing:0px;fill:#000000;fill-opacity:1;stroke:none;stroke-width:0.48868459px;stroke-linecap:butt;stroke-linejoin:miter;stroke-opacity:1"
             id="g4559"
             transform="matrix(0.59036761,0,0,0.49652953,-87.718349,-185.85143)">
            <path
               inkscape:connector-curvature="0"
               d="m 342.98047,854.70703 v 13.20313 h -3.59375 v -13.08594 q 0,-3.10547 -1.21094,-4.64844 -1.21094,-1.54297 -3.63281,-1.54297 -2.91016,0 -4.58985,1.85547 -1.67968,1.85547 -1.67968,5.05859 v 12.36329 h -3.61328 v -21.875 h 3.61328 v 3.39843 q 1.28906,-1.97265 3.02734,-2.94922 1.75781,-0.97656 4.04297,-0.97656 3.76953,0 5.70312,2.34375 1.9336,2.32422 1.9336,6.85547 z"
               style="fill:#000000;fill-opacity:1;stroke-width:0.48868459px"
               id="path4536" />
          </g>
          <path
             inkscape:connector-curvature="0"
             id="path4538"
             style="font-style:normal;font-weight:normal;font-size:medium;line-height:125%;font-family:sans-serif;letter-spacing:0px;word-spacing:0px;fill:#000000;fill-opacity:1;stroke:none;stroke-width:0.26458332px;stroke-linecap:butt;stroke-linejoin:miter;stroke-opacity:1"
             d="m 130.06734,239.2147 v 0.8728 h -9.7549 q 0.13836,1.8426 1.31449,2.81238 1.18765,0.96009 3.29775,0.96009 1.22225,0 2.36378,-0.25215 1.15306,-0.25214 2.28306,-0.75643 v 1.68742 q -1.14153,0.40732 -2.34071,0.62066 -1.19919,0.21336 -2.43296,0.21336 -3.09021,0 -4.90052,-1.51286 -1.79877,-1.51287 -1.79877,-4.09249 0,-2.66691 1.70653,-4.22827 1.71806,-1.57104 4.62378,-1.57104 2.60592,0 4.11643,1.41588 1.52204,1.40619 1.52204,3.83065 z m -2.12163,-0.52368 q -0.0231,-1.46438 -0.98011,-2.33718 -0.94551,-0.87281 -2.51367,-0.87281 -1.77571,0 -2.84806,0.84371 -1.06082,0.84371 -1.22225,2.37597 z" />
          <path
             inkscape:connector-curvature="0"
             id="path4540"
             style="font-style:normal;font-weight:normal;font-size:medium;line-height:125%;font-family:sans-serif;letter-spacing:0px;word-spacing:0px;fill:#000000;fill-opacity:1;stroke:none;stroke-width:0.26458332px;stroke-linecap:butt;stroke-linejoin:miter;stroke-opacity:1"
             d="m 141.78245,234.55004 v 1.68742 q -0.89939,-0.38791 -1.86797,-0.58187 -0.96856,-0.19396 -2.00632,-0.19396 -1.57969,0 -2.37531,0.40732 -0.78408,0.4073 -0.78408,1.22192 0,0.62066 0.565,0.97948 0.565,0.34913 2.27153,0.66916 l 0.72643,0.13576 q 2.26,0.40732 3.20551,1.15405 0.95704,0.73703 0.95704,2.06564 0,1.51286 -1.42979,2.39537 -1.41827,0.8825 -3.90888,0.8825 -1.03776,0 -2.16776,-0.17456 -1.11847,-0.16486 -2.36378,-0.50429 v -1.84259 q 1.17613,0.51398 2.31766,0.77583 1.14153,0.25214 2.26,0.25214 1.49898,0 2.30613,-0.42671 0.80714,-0.4364 0.80714,-1.22192 0,-0.72734 -0.58807,-1.11526 -0.57652,-0.38791 -2.54826,-0.74673 l -0.73796,-0.14546 q -1.97174,-0.34913 -2.84806,-1.06677 -0.87633,-0.72733 -0.87633,-1.98806 0,-1.53225 1.29143,-2.36627 1.29143,-0.83401 3.66674,-0.83401 1.17612,0 2.21387,0.14546 1.03776,0.14547 1.91409,0.43641 z" />
        </g>
      </g>
      <path
         sodipodi:nodetypes="ccccc"
         inkscape:connector-curvature="0"
         id="rect4894"
         d="m 100.79831,77.093567 35.49458,-0.0493 1.5815,19.22392 -36.99719,-0.0703 z"
         style="opacity:0.98000004;fill:#ff0000;fill-opacity:1;fill-rule:evenodd;stroke:#ffffff;stroke-width:2.4000001;stroke-linejoin:miter;stroke-miterlimit:4;stroke-dasharray:none;stroke-opacity:0" />
      <path
         sodipodi:nodetypes="ccccccc"
         inkscape:connector-curvature="0"
         id="rect5919"
         d="m 215.85354,157.75925 21.13753,0.14551 v -19.27678 l 2.49131,2.48302 0.35937,21.48029 -24.62275,-1.14936 z"
         style="opacity:0.98000004;fill:#ffffff;fill-opacity:1;fill-rule:evenodd;stroke:#ffffff;stroke-width:2.4000001;stroke-linejoin:miter;stroke-miterlimit:4;stroke-dasharray:none;stroke-opacity:0" />
    </g>
  </g>
</svg>
